<?xml version="1.0" encoding="UTF-8"?>
<svg width="24px" height="21px" viewBox="0 0 24 21" version="1.1" xmlns="http://www.w3.org/2000/svg" xmlns:xlink="http://www.w3.org/1999/xlink">
    <title>Animation</title>
    <g id="Themes" stroke="none" stroke-width="1" fill-rule="evenodd" opacity="0.6">
        <g id="Layout2" transform="translate(-1199.000000, -509.000000)">
            <g id="Group-10" transform="translate(1199.000000, 509.151724)">
                <path d="M15.3105882,-8.02495325e-15 L6.78691765,4.92084706 L6.78691765,14.7628235 L15.3105882,19.6839529 L23.8342588,14.7628235 L23.8342588,4.92112941 L15.3105882,-8.02495325e-15 Z M22.752,5.11143529 L15.3105882,9.05195294 L7.86861176,5.11143529 L15.3103059,0.815152941 L22.752,5.11143529 Z M7.4928,5.71087059 L14.9576471,9.66381176 L14.9576471,18.6652235 L7.4928,14.3553882 L7.4928,5.71087059 Z M15.6635294,18.6652235 L15.6635294,9.66381176 L23.1283765,5.71087059 L23.1283765,14.3553882 L15.6635294,18.6652235 Z" id="Shape"></path>
                <rect id="Rectangle" x="14.9576471" y="4.92508235" width="1" height="1"></rect>
                <rect id="Rectangle" x="14.9576471" y="1.53684706" width="1" height="1"></rect>
                <rect id="Rectangle" x="14.9576471" y="6.05449412" width="1" height="1"></rect>
                <rect id="Rectangle" x="14.9576471" y="2.66625882" width="1" height="1"></rect>
                <rect id="Rectangle" x="14.9576471" y="7.18390588" width="1" height="1"></rect>
                <rect id="Rectangle" x="14.9576471" y="3.79567059" width="1" height="1"></rect>
                <polygon id="Rectangle" transform="translate(17.495364, 10.818278) rotate(-147.986721) translate(-17.495364, -10.818278) " points="17.2128782 10.465347 17.7778496 10.465347 17.7778496 11.1712083 17.2128782 11.1712083"></polygon>
                <polygon id="Rectangle" transform="translate(16.537627, 10.219497) rotate(-147.986721) translate(-16.537627, -10.219497) " points="16.2551418 9.86656596 16.8201132 9.86656596 16.8201132 10.5724273 16.2551418 10.5724273"></polygon>
                <polygon id="Rectangle" transform="translate(19.411023, 12.014933) rotate(-147.994617) translate(-19.411023, -12.014933) " points="19.1288106 11.6621321 19.6932353 11.6621321 19.6932353 12.3677335 19.1288106 12.3677335"></polygon>
                <polygon id="Rectangle" transform="translate(18.452889, 11.416909) rotate(-147.986721) translate(-18.452889, -11.416909) " points="18.1704034 11.0639784 18.7353748 11.0639784 18.7353748 11.7698397 18.1704034 11.7698397"></polygon>
                <polygon id="Rectangle" transform="translate(22.283839, 13.811755) rotate(-147.986721) translate(-22.283839, -13.811755) " points="22.0013537 13.4588242 22.5663251 13.4588242 22.5663251 14.1646855 22.0013537 14.1646855"></polygon>
                <polygon id="Rectangle" transform="translate(20.368562, 12.613515) rotate(-147.994617) translate(-20.368562, -12.613515) " points="20.0863496 12.2607147 20.6507743 12.2607147 20.6507743 12.9663161 20.0863496 12.9663161"></polygon>
                <polygon id="Rectangle" transform="translate(21.326165, 13.213363) rotate(-147.986721) translate(-21.326165, -13.213363) " points="21.0436788 12.8604322 21.6086502 12.8604322 21.6086502 13.5662935 21.0436788 13.5662935"></polygon>
                <polygon id="Rectangle" transform="translate(13.146506, 10.817107) rotate(-122.038786) translate(-13.146506, -10.817107) " points="12.7935601 10.5346097 13.4994515 10.5346097 13.4994515 11.0996051 12.7935601 11.0996051"></polygon>
                <polygon id="Rectangle" transform="translate(14.103279, 10.219179) rotate(-32.013279) translate(-14.103279, -10.219179) " points="13.8207934 9.86624874 14.3857649 9.86624874 14.3857649 10.5721101 13.8207934 10.5721101"></polygon>
                <polygon id="Rectangle" transform="translate(11.230610, 12.015877) rotate(-122.000524) translate(-11.230610, -12.015877) " points="10.8778276 11.7336796 11.5833916 11.7336796 11.5833916 12.2980743 10.8778276 12.2980743"></polygon>
                <polygon id="Rectangle" transform="translate(12.188779, 11.415608) rotate(-122.038786) translate(-12.188779, -11.415608) " points="11.8358329 11.1331106 12.5417243 11.1331106 12.5417243 11.698106 11.8358329 11.698106"></polygon>
                <polygon id="Rectangle" transform="translate(8.358031, 13.810589) rotate(-122.038786) translate(-8.358031, -13.810589) " points="8.00508499 13.5280912 8.71097636 13.5280912 8.71097636 14.0930867 8.00508499 14.0930867"></polygon>
                <polygon id="Rectangle" transform="translate(10.272948, 12.614586) rotate(-122.000524) translate(-10.272948, -12.614586) " points="9.9201657 12.3323887 10.6257297 12.3323887 10.6257297 12.8967834 9.9201657 12.8967834"></polygon>
                <polygon id="Rectangle" transform="translate(9.315608, 13.211849) rotate(-122.038786) translate(-9.315608, -13.211849) " points="8.96266241 12.929351 9.66855377 12.929351 9.66855377 13.4943464 8.96266241 13.4943464"></polygon>
                <rect id="Rectangle" x="4.16470588" y="0.0544941176" width="8.75294118" height="1"></rect>
                <rect id="Rectangle" x="4.16470588" y="18.9721412" width="8.75294118" height="1"></rect>
                <rect id="Rectangle" x="0" y="9.80442353" width="5.68235294" height="1"></rect>
                <rect id="Rectangle" x="1.30588235" y="8.39265882" width="4.94117647" height="1"></rect>
                <rect id="Rectangle" x="1.30588235" y="11.2161882" width="4.94117647" height="1"></rect>
            </g>
        </g>
    </g>
</svg>