<?xml version="1.0" encoding="UTF-8"?>
<svg width="20px" height="20px" viewBox="0 0 20 20" version="1.1" xmlns="http://www.w3.org/2000/svg" xmlns:xlink="http://www.w3.org/1999/xlink">
    <title>Border</title>
    <g id="Themes" stroke="none" stroke-width="1" fill-rule="evenodd" opacity="0.6">
        <g id="Layout2" transform="translate(-1201.000000, -465.000000)">
            <g id="Group-11" transform="translate(1201.000000, 465.000000)">
                <path d="M1.8115942,-1.32367547e-13 C2.81211005,-1.32367547e-13 3.62318841,0.811078351 3.62318841,1.8115942 C3.62318841,2.81211005 2.81211005,3.62318841 1.8115942,3.62318841 C0.811078351,3.62318841 -8.85282186e-15,2.81211005 -8.85282186e-15,1.8115942 C-8.85282186e-15,0.811078351 0.811078351,-1.32367547e-13 1.8115942,-1.32367547e-13 Z M1.8115942,0.905797101 C1.31133628,0.905797101 0.905797101,1.31133628 0.905797101,1.8115942 C0.905797101,2.31185213 1.31133628,2.7173913 1.8115942,2.7173913 C2.31185213,2.7173913 2.7173913,2.31185213 2.7173913,1.8115942 C2.7173913,1.31133628 2.31185213,0.905797101 1.8115942,0.905797101 Z" id="Combined-Shape"></path>
                <rect id="Rectangle" x="3.17028986" y="1.35869565" width="13.5869565" height="1"></rect>
                <path d="M18.115942,-1.32367547e-13 C19.1164579,-1.32367547e-13 19.9275362,0.811078351 19.9275362,1.8115942 C19.9275362,2.81211005 19.1164579,3.62318841 18.115942,3.62318841 C17.1154262,3.62318841 16.3043478,2.81211005 16.3043478,1.8115942 C16.3043478,0.811078351 17.1154262,-1.32367547e-13 18.115942,-1.32367547e-13 Z M18.115942,0.905797101 C17.6156841,0.905797101 17.2101449,1.31133628 17.2101449,1.8115942 C17.2101449,2.31185213 17.6156841,2.7173913 18.115942,2.7173913 C18.6161999,2.7173913 19.0217391,2.31185213 19.0217391,1.8115942 C19.0217391,1.31133628 18.6161999,0.905797101 18.115942,0.905797101 Z" id="Combined-Shape"></path>
                <path d="M1.8115942,16.3043478 C2.81211005,16.3043478 3.62318841,17.1154262 3.62318841,18.115942 C3.62318841,19.1164579 2.81211005,19.9275362 1.8115942,19.9275362 C0.811078351,19.9275362 -8.85282186e-15,19.1164579 -8.85282186e-15,18.115942 C-8.85282186e-15,17.1154262 0.811078351,16.3043478 1.8115942,16.3043478 Z M1.8115942,17.2101449 C1.31133628,17.2101449 0.905797101,17.6156841 0.905797101,18.115942 C0.905797101,18.6161999 1.31133628,19.0217391 1.8115942,19.0217391 C2.31185213,19.0217391 2.7173913,18.6161999 2.7173913,18.115942 C2.7173913,17.6156841 2.31185213,17.2101449 1.8115942,17.2101449 Z" id="Combined-Shape"></path>
                <rect id="Rectangle" x="3.17028986" y="17.6630435" width="13.5869565" height="1"></rect>
                <path d="M18.115942,16.3043478 C19.1164579,16.3043478 19.9275362,17.1154262 19.9275362,18.115942 C19.9275362,19.1164579 19.1164579,19.9275362 18.115942,19.9275362 C17.1154262,19.9275362 16.3043478,19.1164579 16.3043478,18.115942 C16.3043478,17.1154262 17.1154262,16.3043478 18.115942,16.3043478 Z M18.115942,17.2101449 C17.6156841,17.2101449 17.2101449,17.6156841 17.2101449,18.115942 C17.2101449,18.6161999 17.6156841,19.0217391 18.115942,19.0217391 C18.6161999,19.0217391 19.0217391,18.6161999 19.0217391,18.115942 C19.0217391,17.6156841 18.6161999,17.2101449 18.115942,17.2101449 Z" id="Combined-Shape"></path>
                <rect id="Rectangle" x="1.35869565" y="3.17028986" width="1" height="13.5869565"></rect>
                <rect id="Rectangle" x="17.6630435" y="3.17028986" width="1" height="13.5869565"></rect>
            </g>
        </g>
    </g>
</svg>