<?xml version="1.0" encoding="UTF-8"?>
<svg width="20px" height="17px" viewBox="0 0 20 17" version="1.1" xmlns="http://www.w3.org/2000/svg" xmlns:xlink="http://www.w3.org/1999/xlink">
    <title>Combined Shape</title>
    <g id="Themes" stroke="none" stroke-width="1" fill="none" fill-rule="evenodd" fill-opacity="0.6">
        <g id="Layout2" transform="translate(-1202.000000, -552.000000)" fill="#FFFFFF" fill-rule="nonzero">
            <path d="M1209.08333,552.610388 C1209.7725,552.610388 1210.33333,553.171221 1210.33333,553.860388 L1210.333,555.943388 L1213.666,555.943388 L1213.66667,553.860388 C1213.66667,553.171221 1214.2275,552.610388 1214.91667,552.610388 L1218.25,552.610388 C1218.93917,552.610388 1219.5,553.171221 1219.5,553.860388 L1219.499,555.943388 L1220.75,555.943721 C1221.43917,555.943721 1222,556.504554 1222,557.193721 L1222,568.027054 C1222,568.257054 1221.81333,568.443721 1221.58333,568.443721 L1202.41667,568.443721 C1202.18667,568.443721 1202,568.257054 1202,568.027054 L1202,557.193721 C1202,556.504554 1202.56083,555.943721 1203.25,555.943721 L1204.499,555.943388 L1204.5,553.860388 C1204.5,553.171221 1205.06083,552.610388 1205.75,552.610388 L1209.08333,552.610388 Z M1220.75,556.777054 L1203.25,556.777054 C1203.02,556.777054 1202.83333,556.963721 1202.83333,557.193721 L1202.83333,567.610388 L1221.16667,567.610388 L1221.16667,557.193721 C1221.16667,556.963721 1220.98,556.777054 1220.75,556.777054 Z M1209.08333,553.443721 L1205.75,553.443721 C1205.52,553.443721 1205.33333,553.630388 1205.33333,553.860388 L1205.33333,555.943721 L1209.5,555.943721 L1209.5,553.860388 C1209.5,553.630388 1209.31333,553.443721 1209.08333,553.443721 Z M1218.25,553.443721 L1214.91667,553.443721 C1214.68667,553.443721 1214.5,553.630388 1214.5,553.860388 L1214.5,555.943721 L1218.66667,555.943721 L1218.66667,553.860388 C1218.66667,553.630388 1218.48,553.443721 1218.25,553.443721 Z" id="Combined-Shape"></path>
        </g>
    </g>
</svg>