<?xml version="1.0" encoding="UTF-8"?>
<svg width="20px" height="21px" viewBox="0 0 20 21" version="1.1" xmlns="http://www.w3.org/2000/svg" xmlns:xlink="http://www.w3.org/1999/xlink">
    <title>Spacing</title>
    <g id="Themes" stroke="none" stroke-width="1">
        <g id="Layout2" transform="translate(-1201.000000, -217.000000)">
            <g id="Shape-3" transform="translate(1201.000000, 217.848276)">
                <path d="M16,20 L16,19 L19,19 L19,16 L20,16 L20,20 L16,20 L16,20 Z M19,1 L16,1 L16,0 L20,0 L20,4 L19,4 L19,1 L19,1 Z M1,4 L0,4 L0,0 L4,0 L4,1 L1,1 L1,4 L1,4 Z M3,3 L17,3 L17,17 L3,17 L3,3 L3,3 Z M4,16 L16,16 L16,4 L4,4 L4,16 L4,16 Z M1,19 L4,19 L4,20 L0,20 L0,16 L1,16 L1,19 L1,19 Z" id="Shape"></path>
            </g>
        </g>
    </g>
</svg>