<svg height="300" width="300" fill="currentColor" xmlns="http://www.w3.org/2000/svg" viewBox="0 0 96 96">
	<path d="M79 32H11c-1.104 0-2-.896-2-2V6c0-1.104.896-2 2-2h68c1.1 0 2 .896 2 2v24c0 1.104-.9 2-2 2zm-66-4h64V8H13v20zM45 92h-4.064C36.56 92 33 88.436 33 84.064V63.948C33 59.564 36.56 56 40.936 56h4.092c4.396 0 7.968 3.572 7.968 7.936V84.06C53 88.436 49.412 92 45 92zm-4.064-32C38.764 60 37 61.764 37 63.936V84.06c0 2.176 1.764 3.94 3.936 3.94H45c2.204 0 4-1.764 4-3.936V63.94c0-2.164-1.78-3.932-3.968-3.932L40.936 60z"/>
	<path d="M9 20H5c-1.104 0-2-.896-2-2s.896-2 2-2h4c1.104 0 2 .896 2 2s-.896 2-2 2zM43 58c-1.104 0-2-.9-2-2v-8.06c0-1.04.8-1.908 1.836-1.996L89 42.156V20h-8c-1.1 0-2-.896-2-2s.9-2 2-2h10c1.1 0 2 .896 2 2v26c0 1.044-.8 1.912-1.836 1.996L45 49.784V56c0 1.1-.896 2-2 2z"/>
</svg>