<svg height='300px' width='300px'  fill="#ffffff" xmlns="http://www.w3.org/2000/svg" xmlns:xlink="http://www.w3.org/1999/xlink" version="1.1" x="0px" y="0px" viewBox="0 0 24 24" style="enable-background:new 0 0 24 24;" xml:space="preserve"><style type="text/css">
	.st0{display:none;}
</style><g><g><g><path d="M12,19.5c-4.901,0-9.476-2.782-11.938-7.259c-0.083-0.15-0.083-0.332,0-0.481C2.524,7.282,7.099,4.5,12,4.5     s9.476,2.782,11.938,7.259c0.083,0.15,0.083,0.332,0,0.481C21.476,16.718,16.901,19.5,12,19.5z M1.074,12     C3.39,16.017,7.552,18.5,12,18.5s8.61-2.483,10.926-6.5C20.61,7.983,16.448,5.5,12,5.5S3.39,7.983,1.074,12z"></path></g><g><path d="M12,8.5c-0.428,0-0.833,0.088-1.212,0.228C11.214,8.993,11.5,9.461,11.5,10c0,0.828-0.672,1.5-1.5,1.5     c-0.539,0-1.007-0.286-1.272-0.712C8.588,11.167,8.5,11.572,8.5,12c0,1.933,1.567,3.5,3.5,3.5s3.5-1.567,3.5-3.5     S13.933,8.5,12,8.5z"></path></g></g></g></svg>