<svg height='300px' width='300px'  fill="#ffffff" xmlns="http://www.w3.org/2000/svg" xmlns:xlink="http://www.w3.org/1999/xlink" version="1.1" x="0px" y="0px" viewBox="0 0 26 26" style="enable-background:new 0 0 26 26;" xml:space="preserve"><path d="M22.544,17.129l-3.613-0.656v-5.414c0-1.017-0.827-1.844-1.844-1.844s-1.844,0.827-1.844,1.844v9.104l-1.01-1.01  c-0.721-0.721-1.979-0.721-2.699,0c-0.744,0.744-0.744,1.955,0,2.699l3.001,3.001c0.195,0.195,0.512,0.195,0.707,0  s0.195-0.512,0-0.707l-3.001-3.001c-0.354-0.354-0.354-0.931,0-1.285c0.355-0.354,0.931-0.354,1.285,0l1.864,1.864  c0.144,0.144,0.358,0.188,0.545,0.108c0.187-0.077,0.309-0.26,0.309-0.462V11.059c0-0.465,0.379-0.844,0.844-0.844  s0.844,0.379,0.844,0.844v5.832c0,0.242,0.173,0.449,0.411,0.492l4.024,0.731C23.313,18.285,24,19.109,24,20.072  c0,0.2-0.03,0.399-0.09,0.591l-1.148,3.688c-0.082,0.264,0.065,0.544,0.329,0.626C23.141,24.993,23.191,25,23.24,25  c0.213,0,0.411-0.137,0.478-0.352l1.148-3.689C24.955,20.671,25,20.373,25,20.072C25,18.625,23.967,17.388,22.544,17.129z"></path><path d="M1,1.5C1,1.776,1.224,2,1.5,2h3.286c0.276,0,0.5-0.224,0.5-0.5S5.063,1,4.786,1H1.5C1.224,1,1,1.224,1,1.5z"></path><path d="M11.358,1H8.072c-0.276,0-0.5,0.224-0.5,0.5S7.795,2,8.072,2h3.286c0.276,0,0.5-0.224,0.5-0.5S11.634,1,11.358,1z"></path><path d="M17.93,1h-3.286c-0.276,0-0.5,0.224-0.5,0.5s0.224,0.5,0.5,0.5h3.286c0.276,0,0.5-0.224,0.5-0.5S18.206,1,17.93,1z"></path><path d="M1.5,8.572h3.286c0.276,0,0.5-0.224,0.5-0.5s-0.224-0.5-0.5-0.5H1.5c-0.276,0-0.5,0.224-0.5,0.5S1.224,8.572,1.5,8.572z"></path><path d="M11.358,7.572H8.072c-0.276,0-0.5,0.224-0.5,0.5s0.224,0.5,0.5,0.5h3.286c0.276,0,0.5-0.224,0.5-0.5  S11.634,7.572,11.358,7.572z"></path><path d="M1.5,15.144h3.286c0.276,0,0.5-0.224,0.5-0.5s-0.224-0.5-0.5-0.5H1.5c-0.276,0-0.5,0.224-0.5,0.5S1.224,15.144,1.5,15.144z"></path><path d="M11.358,14.144H8.072c-0.276,0-0.5,0.224-0.5,0.5s0.224,0.5,0.5,0.5h3.286c0.276,0,0.5-0.224,0.5-0.5  S11.634,14.144,11.358,14.144z"></path></svg>