<svg height="300" width="300" fill="currentColor" xmlns="http://www.w3.org/2000/svg" version="1.0" viewBox="0 0 100 100">
    <path d="M43.333 10h-30C11.501 10 10 11.5 10 13.334v73.333C10 88.499 11.501 90 13.333 90h30c1.833 0 3.334-1.501 3.334-3.333V13.334c0-1.834-1.501-3.334-3.334-3.334zM40 83.333H16.667V16.666H40v66.667zM86.667 10h-30c-1.833 0-3.334 1.5-3.334 3.334v30c0 1.832 1.501 3.332 3.334 3.332h30c1.832 0 3.333-1.5 3.333-3.332v-30C90 11.5 88.499 10 86.667 10zm-3.334 30H60V16.666h23.333V40zM86.667 53.334h-30c-1.833 0-3.334 1.5-3.334 3.332v30.001c0 1.832 1.501 3.333 3.334 3.333h30C88.499 90 90 88.499 90 86.667V56.666c0-1.832-1.501-3.332-3.333-3.332zm-3.334 29.999H60V60h23.333v23.333z"/>
</svg>