<svg width="25" height="25" xmlns="http://www.w3.org/2000/svg">
    <g fill="currentColor" fill-rule="nonzero" stroke="currentColor" stroke-width=".2" opacity="1">
        <path d="M23.7715306 10.48061742l-1.6845518-.28577218c-.1754742-.56653082-.4010838-1.11300744-.6768289-1.63441633l.9926823-1.38875253c.421138-.59159854.3559619-1.39877962-.1604335-1.91016141l-1.494037-1.49403701c-.2807586-.28075864-.6517611-.43617859-1.0478313-.43617859-.3108399 0-.6066392.09525739-.8573165.27574508l-1.3937661.99268231c-.5414631-.28577218-1.1079939-.52140889-1.6945789-.69688303l-.2807586-1.66449762C15.3537851 1.52140889 14.7371188 1 14.0101545 1h-2.1107033c-.7269643 0-1.34363058.52140889-1.4639557 1.23834611l-.29078573 1.70460599c-.56151727.17547415-1.10799389.40609731-1.62940278.68685594l-1.37872544-.99268231c-.25067735-.18048769-.55149017-.27574508-.86233008-.27574508-.39607022 0-.77208624.15541995-1.04783133.43617859L3.72736958 5.29159625c-.5113818.5113818-.58157145 1.31856287-.1604335 1.91016142l1.0027094 1.40880671c-.27574509.52642244-.49634116 1.07289906-.66680175 1.63942988l-1.66449762.28075863C1.52140889 10.65107802 1 11.2677443 1 11.9947086v2.1107033c0 .7269643.52140889 1.3436306 1.23834611 1.4639557l1.70460599.2907858c.17547415.5615172.40609731 1.1079939.68685594 1.6294028l-.98766876 1.3737118c-.42113795.5915986-.35596184 1.3987797.16043351 1.9101615l1.49403701 1.494037c.28075863.2807586.65176111.4361786 1.04783133.4361786.31083991 0 .60663918-.0952574.85731654-.2757451l1.40880671-1.0027094c.50636825.265718 1.03780423.4813005 1.58428086.6517611l.28075863 1.6845518c.12032513.7169372.73699143 1.2383461 1.46395573 1.2383461h2.1157168c.7269644 0 1.3436306-.5214089 1.4639558-1.2383461l.2857722-1.6845518c.5665308-.1754742 1.1130074-.4010838 1.6344163-.6768289l1.3887525.9926823c.2506774.1804877.5514902.2757451.8623301.2757451h0c.3960702 0 .7670727-.1554199 1.0478313-.4361786l1.494037-1.494037c.5113818-.5113818.5815715-1.3185628.1604335-1.9101614l-.9926823-1.3937661c.2757451-.5264224.5063683-1.072899.6768289-1.6344163l1.6845518-.2807586C24.4784407 15.398907 25 14.7822408 25 14.0552764v-2.1107033c.0098767-.7269643-.5115322-1.34363055-1.2284694-1.46395568zm-.1153116 3.57465898c0 .0651762-.0451219.1203252-.110298.1303523l-2.1056898.3509483c-.265718.0451219-.476287.2406502-.5414631.4963411-.1905148.7369914-.4813005 1.4439016-.8723572 2.1006762-.1353657.2306232-.1253386.5163954.0300813.7369914l1.2383461 1.7447144c.0350949.0501355.0300813.1253387-.0150406.1704606l-1.494037 1.494037c-.0350948.0350948-.0701897.0401084-.0952574.0401084-.0300813 0-.055149-.0100271-.0752032-.0250678l-1.7397008-1.2383461c-.2155825-.1554199-.5063683-.165447-.7369914-.0300813-.6567747.3910567-1.3636848.6818424-2.1006762.8723572-.2607045.0651761-.4562328.2807587-.4963412.5414631l-.3559618 2.1056898c-.0100271.0651761-.0651761.110298-.1303523.110298h-2.1107033c-.0651761 0-.1203251-.0451219-.1303522-.110298l-.3509483-2.1056898c-.0451219-.265718-.2406502-.476287-.49634112-.5414631-.71693722-.1855012-1.40880671-.4712734-2.05555428-.8422759-.10528449-.0601625-.22560962-.0902438-.3409212-.0902438-.13536577 0-.27574508.0401084-.39105666.1253387l-1.75474146 1.2483732c-.02506774.0150406-.05013547.0250677-.07520321.0250677-.02005419 0-.06016256-.0050135-.09525739-.0401084l-1.49403701-1.494037c-.04512193-.0451219-.05013547-.1153116-.01504064-.1704606l1.23333256-1.7296737c.15541996-.2205961.16544705-.5113818.03008128-.742005-.39105666-.6517611-.69186948-1.3586712-.88238427-2.0956626-.07018966-.2556909-.28075863-.4512193-.54146308-.4963412l-2.12073039-.3609754c-.06517611-.0100271-.11029803-.0651761-.11029803-.1303522v-2.1107033c0-.0651761.04512192-.1203251.11029803-.1303522l2.09064911-.3509483c.26571799-.0451219.48130051-.2406503.54647662-.5013547.18550124-.73699141.47127342-1.44891509.85731654-2.10568975.13536577-.23062316.12032513-.51639534-.03509482-.73197786L4.67492997 6.41964433c-.03509483-.05013547-.03008129-.12533867.01504064-.1704606l1.49403701-1.49403701c.03509483-.03509483.07018966-.04010838.09525739-.04010838.03008129 0 .05514902.0100271.07520321.02506774l1.72967372 1.23333257c.22059607.15541995.5113818.16544705.74200496.03008128.65176111-.39105667 1.35867124-.69186949 2.09566266-.88238428.25569094-.07018966.45121924-.28075863.49634114-.54146308l.3609754-2.12073039c.0100271-.06517611.0651761-.11029803.1303522-.11029803h2.1107033c.0651761 0 .1203251.04512192.1303522.11029803l.3509483 2.09064911c.045122.26571799.2406503.48130052.5013547.54647663.7570456.19051478 1.4789964.48631406 2.1508117.88238427.2306232.13536577.5163953.12533868.7369914-.03008128l1.7296737-1.24335966c.0250678-.01504064.0501355-.02506774.0752032-.02506774.0200542 0 .0601626.00501355.0952574.04010838l1.4940371 1.49403701c.0451219.04512193.0501354.11531158.0150406.1704606l-1.2383461 1.73970082c-.15542.21558252-.1654471.50636825-.0300813.73699141.3910567.65677466.6818424 1.36368479.8723572 2.1006762.0651761.26070447.2807586.45623277.5414631.49634117l2.1056897.3559618c.0651761.0100271.110298.0651761.110298.1303522v2.1107033h-.0050135 0z"/>
        <path d="M13.0024316 7.81842395c-2.85772183 0-5.1789941 2.32127227-5.1789941 5.17899405 0 2.8577218 2.32127227 5.1789941 5.1789941 5.1789941 2.8577218 0 5.178994-2.3212723 5.178994-5.1789941 0-2.85772178-2.3212722-5.17899405-5.178994-5.17899405zm0 9.00433045c-2.11070333 0-3.82533641-1.7146331-3.82533641-3.8253364 0-2.11070327 1.71463308-3.82533635 3.82533641-3.82533635 2.1107033 0 3.8253363 1.71463308 3.8253363 3.82533635 0 2.1107033-1.714633 3.8253364-3.8253363 3.8253364z"/>
    </g>
</svg>