<svg height="300" width="300" fill="currentColor" xmlns="http://www.w3.org/2000/svg" viewBox="0 0 100 100">
    <path style="text-indent:0;text-transform:none;block-progression:tb" d="M41.999985 5c-1.452.072-2.6909 1.2771-2.9375 2.4375l-1.625 8.9063c-.7897.2963-1.5516.6206-2.3125.9687l-7.5-5.1562c-1.1475-.7757-2.8382-.6094-3.8125.375l-11.3125 11.3125c-.9749.982-1.1273 2.6719-.3438 3.8125l5.1563 7.4375c-.3444.7523-.6443 1.5323-.9375 2.3125l-8.9061997 1.625c-1.3761.2477-2.4763 1.5706-2.4688 2.9687v16.00002c.01 1.3877 1.1029 2.6916 2.4688 2.9375l8.9061997 1.625c.3009.7862.6197 1.5625.9688 2.3125l-5.1876 7.4375c-.7835 1.1406-.6311 2.8304.3438 3.8125l11.3125 11.3125c.9779.9998 2.691 1.1669 3.8437.375l7.4688-5.1563c.7643.3469 1.5237.6755 2.3125.9688l1.625 8.9062c.2458 1.3658 1.5497 2.4617 2.9375 2.4688h16c1.3877-.01 2.6916-1.103 2.9375-2.4688l1.625-8.9062c.7893-.296 1.5516-.6205 2.3125-.9688l7.4375 5.1563c1.1527.7919 2.8659.6248 3.8437-.375l11.3126-11.3125c.9748-.9821 1.1271-2.6719.3437-3.8125l-5.1563-7.4375c.3412-.7413.6451-1.5102.9376-2.2813l8.9374-1.6562c1.3659-.2459 2.4617-1.5498 2.4688-2.9375V42c.01-1.3981-1.0927-2.721-2.4688-2.9687l-8.9062-1.625c-.2878-.7734-.6289-1.5313-.9688-2.2813l5.1563-7.4687c.7834-1.1406.6312-2.8305-.3437-3.8125l-11.3126-11.3125c-.9857-.9904-2.698-1.1435-3.8437-.3438l-7.4375 5.125c-.7609-.3482-1.5232-.6728-2.3125-.9687l-1.625-8.9063c-.2587-1.3546-1.5585-2.4331-2.9375-2.4375h-16zm2.5 6h11l1.4688 8.0313c.195 1.0595 1.0057 1.9823 2.0312 2.3125 1.6859.53 3.326 1.2222 4.875 2.0312.9618.5035 2.1997.4285 3.0938-.1875l6.7187-4.6562 7.7813 7.7812-4.6563 6.75c-.616.894-.691 2.1319-.1875 3.0938.7954 1.5273 1.438 3.1241 1.9688 4.8125.3254 1.0449 1.2658 1.8725 2.3437 2.0625l8.0625 1.4687v11.00002l-8.0625 1.4687c-1.0779.19-2.0183 1.0176-2.3437 2.0625-.5265 1.6695-1.19 3.262-2 4.8125-.5036.9619-.4285 2.1998.1874 3.0938l4.6876 6.7187-7.7813 7.7813-6.7187-4.625c-.8883-.6258-2.1265-.7133-3.0938-.2188-1.549.809-3.1891 1.5013-4.875 2.0313-1.0255.3301-1.8362 1.253-2.0312 2.3125l-1.4688 8.0625h-11l-1.4688-8.0625c-.195-1.0595-1.0058-1.9824-2.0312-2.3125-1.6995-.5343-3.3684-1.1962-4.9062-2-.9619-.5035-2.1998-.4285-3.0938.1875l-6.7188 4.625-7.75-7.75 4.6876-6.7188c.6277-.9006.703-2.1558.1874-3.125-.825-1.5779-1.5083-3.1802-2.0312-4.8437-.3255-1.045-1.2659-1.8725-2.3438-2.0625l-8.0312-1.4688V44.5l8.0312-1.4687c1.0779-.19 2.0183-1.0176 2.3438-2.0625.5299-1.686 1.191-3.2948 2-4.8438.5035-.9618.4284-2.1997-.1875-3.0937l-4.6875-6.7188 7.7812-7.7812 6.7813 4.6562c.8873.6043 2.108.679 3.0625.1875 1.5445-.8056 3.1976-1.5039 4.875-2.0312 1.0254-.3302 1.8362-1.253 2.0312-2.3125L44.499985 11zm5.5 18c-11.5624 0-21 9.4375-21 21.00002 0 11.5624 9.4376 21 21 21 11.5625 0 21-9.4376 21-21 0-11.56252-9.4375-21.00002-21-21.00002zm0 6c8.3198 0 15 6.6801 15 15.00002 0 8.3197-6.6802 15-15 15s-15-6.6803-15-15c0-8.31992 6.6802-15.00002 15-15.00002z" overflow="visible" color="#000"/>
</svg>