<?xml version="1.0" encoding="UTF-8"?>
<svg width="34px" height="34px" viewBox="0 0 34 34" version="1.1" xmlns="http://www.w3.org/2000/svg" xmlns:xlink="http://www.w3.org/1999/xlink">
    <title>714E9E6D-5E50-48E9-9319-2FF748679F8D</title>
    <defs>
        <path d="M12.1012747,23.8770989 C18.6559121,23.8770989 23.9694066,18.5636044 23.9694066,12.008967 C23.9694066,5.45432967 18.6559121,0.140835165 12.1012747,0.140835165 L12.1012747,23.8770989 Z" id="path-1"></path>
        <path d="M12.1012747,23.8770989 C18.6559121,23.8770989 23.9694066,18.5636044 23.9694066,12.008967 C23.9694066,5.45432967 18.6559121,0.140835165 12.1012747,0.140835165 L12.1012747,23.8770989 Z" id="path-3"></path>
        <path d="M12.1012747,23.8770989 C18.6559121,23.8770989 23.9694066,18.5636044 23.9694066,12.008967 C23.9694066,5.45432967 18.6559121,0.140835165 12.1012747,0.140835165 L12.1012747,23.8770989 Z" id="path-5"></path>
        <path d="M12.1012747,23.8770989 C18.6559121,23.8770989 23.9694066,18.5636044 23.9694066,12.008967 C23.9694066,5.45432967 18.6559121,0.140835165 12.1012747,0.140835165 L12.1012747,23.8770989 Z" id="path-7"></path>
        <path d="M12.1012747,23.8770989 C18.6559121,23.8770989 23.9694066,18.5636044 23.9694066,12.008967 C23.9694066,5.45432967 18.6559121,0.140835165 12.1012747,0.140835165 L12.1012747,23.8770989 Z" id="path-9"></path>
        <path d="M12.1012747,23.8770989 C18.6559121,23.8770989 23.9694066,18.5636044 23.9694066,12.008967 C23.9694066,5.45432967 18.6559121,0.140835165 12.1012747,0.140835165 L12.1012747,23.8770989 Z" id="path-11"></path>
        <path d="M12.1012747,23.8770989 C18.6559121,23.8770989 23.9694066,18.5636044 23.9694066,12.008967 C23.9694066,5.45432967 18.6559121,0.140835165 12.1012747,0.140835165 L12.1012747,23.8770989 Z" id="path-13"></path>
        <path d="M12.1012747,23.8770989 C18.6559121,23.8770989 23.9694066,18.5636044 23.9694066,12.008967 C23.9694066,5.45432967 18.6559121,0.140835165 12.1012747,0.140835165 L12.1012747,23.8770989 Z" id="path-15"></path>
        <path d="M12.1012747,23.8770989 C18.6559121,23.8770989 23.9694066,18.5636044 23.9694066,12.008967 C23.9694066,5.45432967 18.6559121,0.140835165 12.1012747,0.140835165 L12.1012747,23.8770989 Z" id="path-17"></path>
        <path d="M12.1012747,23.8770989 C18.6559121,23.8770989 23.9694066,18.5636044 23.9694066,12.008967 C23.9694066,5.45432967 18.6559121,0.140835165 12.1012747,0.140835165 L12.1012747,23.8770989 Z" id="path-19"></path>
        <path d="M12.1012747,23.8770989 C18.6559121,23.8770989 23.9694066,18.5636044 23.9694066,12.008967 C23.9694066,5.45432967 18.6559121,0.140835165 12.1012747,0.140835165 L12.1012747,23.8770989 Z" id="path-21"></path>
        <path d="M12.1012747,23.8770989 C18.6559121,23.8770989 23.9694066,18.5636044 23.9694066,12.008967 C23.9694066,5.45432967 18.6559121,0.140835165 12.1012747,0.140835165 L12.1012747,23.8770989 Z" id="path-23"></path>
        <path d="M12.1012747,23.8770989 C18.6559121,23.8770989 23.9694066,18.5636044 23.9694066,12.008967 C23.9694066,5.45432967 18.6559121,0.140835165 12.1012747,0.140835165 L12.1012747,23.8770989 Z" id="path-25"></path>
        <path d="M12.1012747,23.8770989 C18.6559121,23.8770989 23.9694066,18.5636044 23.9694066,12.008967 C23.9694066,5.45432967 18.6559121,0.140835165 12.1012747,0.140835165 L12.1012747,23.8770989 Z" id="path-27"></path>
        <path d="M12.1012747,23.8770989 C18.6559121,23.8770989 23.9694066,18.5636044 23.9694066,12.008967 C23.9694066,5.45432967 18.6559121,0.140835165 12.1012747,0.140835165 L12.1012747,23.8770989 Z" id="path-29"></path>
        <path d="M12.1012747,23.8770989 C18.6559121,23.8770989 23.9694066,18.5636044 23.9694066,12.008967 C23.9694066,5.45432967 18.6559121,0.140835165 12.1012747,0.140835165 L12.1012747,23.8770989 Z" id="path-31"></path>
        <path d="M12.1012747,23.8770989 C18.6559121,23.8770989 23.9694066,18.5636044 23.9694066,12.008967 C23.9694066,5.45432967 18.6559121,0.140835165 12.1012747,0.140835165 L12.1012747,23.8770989 Z" id="path-33"></path>
        <path d="M12.1012747,23.8770989 C18.6559121,23.8770989 23.9694066,18.5636044 23.9694066,12.008967 C23.9694066,5.45432967 18.6559121,0.140835165 12.1012747,0.140835165 L12.1012747,23.8770989 Z" id="path-35"></path>
        <path d="M12.1012747,23.8770989 C18.6559121,23.8770989 23.9694066,18.5636044 23.9694066,12.008967 C23.9694066,5.45432967 18.6559121,0.140835165 12.1012747,0.140835165 L12.1012747,23.8770989 Z" id="path-37"></path>
    </defs>
    <g id="Themes" stroke="none" stroke-width="1" fill="none" fill-rule="evenodd">
        <g id="Animation_plugin" transform="translate(-1286.000000, -546.000000)">
            <g id="noun_Opacity_143235" transform="translate(1303.000000, 563.000000) rotate(-135.000000) translate(-1303.000000, -563.000000) translate(1291.000000, 551.000000)">
                <path d="M12.1012747,23.8770989 C5.54663736,23.8770989 0.233142857,18.5636044 0.233142857,12.008967 C0.233142857,5.45432967 5.54663736,0.140835165 12.1012747,0.140835165 L12.1012747,23.8770989 Z" id="Path" fill="#5C606B" fill-rule="nonzero"></path>
                <mask id="mask-2" fill="white">
                    <use xlink:href="#path-1"></use>
                </mask>
                <g id="b"></g>
                <rect id="Rectangle" fill="#5C606B" fill-rule="nonzero" mask="url(#mask-2)" x="12.1012747" y="7.26962637" width="2.37362637" height="2.37362637"></rect>
                <mask id="mask-4" fill="white">
                    <use xlink:href="#path-3"></use>
                </mask>
                <g id="b"></g>
                <rect id="Rectangle" fill="#5C606B" fill-rule="nonzero" mask="url(#mask-4)" x="12.1012747" y="2.52237363" width="2.37362637" height="2.37362637"></rect>
                <mask id="mask-6" fill="white">
                    <use xlink:href="#path-5"></use>
                </mask>
                <g id="b"></g>
                <rect id="Rectangle" fill="#5C606B" fill-rule="nonzero" mask="url(#mask-6)" x="14.4749011" y="0.140835165" width="2.37362637" height="2.37362637"></rect>
                <mask id="mask-8" fill="white">
                    <use xlink:href="#path-7"></use>
                </mask>
                <g id="b"></g>
                <rect id="Rectangle" fill="#5C606B" fill-rule="nonzero" mask="url(#mask-8)" x="14.4749011" y="4.896" width="2.37362637" height="2.37362637"></rect>
                <mask id="mask-10" fill="white">
                    <use xlink:href="#path-9"></use>
                </mask>
                <g id="b"></g>
                <rect id="Rectangle" fill="#5C606B" fill-rule="nonzero" mask="url(#mask-10)" x="12.1012747" y="16.7723077" width="2.37362637" height="2.37362637"></rect>
                <mask id="mask-12" fill="white">
                    <use xlink:href="#path-11"></use>
                </mask>
                <g id="b"></g>
                <rect id="Rectangle" fill="#5C606B" fill-rule="nonzero" mask="url(#mask-12)" x="12.1012747" y="12.0250549" width="2.37362637" height="2.37362637"></rect>
                <mask id="mask-14" fill="white">
                    <use xlink:href="#path-13"></use>
                </mask>
                <g id="b"></g>
                <rect id="Rectangle" fill="#5C606B" fill-rule="nonzero" mask="url(#mask-14)" x="14.4749011" y="9.64325275" width="2.37362637" height="2.37362637"></rect>
                <mask id="mask-16" fill="white">
                    <use xlink:href="#path-15"></use>
                </mask>
                <g id="b"></g>
                <rect id="Rectangle" fill="#5C606B" fill-rule="nonzero" mask="url(#mask-16)" x="14.4749011" y="14.3986813" width="2.37362637" height="2.37362637"></rect>
                <mask id="mask-18" fill="white">
                    <use xlink:href="#path-17"></use>
                </mask>
                <g id="b"></g>
                <rect id="Rectangle" fill="#5C606B" fill-rule="nonzero" mask="url(#mask-18)" x="12.1012747" y="21.5195604" width="2.37362637" height="2.37362637"></rect>
                <mask id="mask-20" fill="white">
                    <use xlink:href="#path-19"></use>
                </mask>
                <g id="b"></g>
                <rect id="Rectangle" fill="#5C606B" fill-rule="nonzero" mask="url(#mask-20)" x="14.4749011" y="19.1459341" width="2.37362637" height="2.37362637"></rect>
                <mask id="mask-22" fill="white">
                    <use xlink:href="#path-21"></use>
                </mask>
                <g id="b"></g>
                <rect id="Rectangle" fill="#5C606B" fill-rule="nonzero" mask="url(#mask-22)" x="16.8485275" y="7.26962637" width="2.37362637" height="2.37362637"></rect>
                <mask id="mask-24" fill="white">
                    <use xlink:href="#path-23"></use>
                </mask>
                <g id="b"></g>
                <rect id="Rectangle" fill="#5C606B" fill-rule="nonzero" mask="url(#mask-24)" x="16.8485275" y="2.52237363" width="2.37362637" height="2.37362637"></rect>
                <mask id="mask-26" fill="white">
                    <use xlink:href="#path-25"></use>
                </mask>
                <g id="b"></g>
                <rect id="Rectangle" fill="#5C606B" fill-rule="nonzero" mask="url(#mask-26)" x="19.2221538" y="0.140835165" width="2.37362637" height="2.37362637"></rect>
                <mask id="mask-28" fill="white">
                    <use xlink:href="#path-27"></use>
                </mask>
                <g id="b"></g>
                <rect id="Rectangle" fill="#5C606B" fill-rule="nonzero" mask="url(#mask-28)" x="16.8485275" y="16.7723077" width="2.37362637" height="2.37362637"></rect>
                <mask id="mask-30" fill="white">
                    <use xlink:href="#path-29"></use>
                </mask>
                <g id="b"></g>
                <rect id="Rectangle" fill="#5C606B" fill-rule="nonzero" mask="url(#mask-30)" x="16.8485275" y="12.0250549" width="2.37362637" height="2.37362637"></rect>
                <mask id="mask-32" fill="white">
                    <use xlink:href="#path-31"></use>
                </mask>
                <g id="b"></g>
                <rect id="Rectangle" fill="#5C606B" fill-rule="nonzero" mask="url(#mask-32)" x="19.2221538" y="9.64325275" width="2.37362637" height="2.37362637"></rect>
                <mask id="mask-34" fill="white">
                    <use xlink:href="#path-33"></use>
                </mask>
                <g id="b"></g>
                <rect id="Rectangle" fill="#5C606B" fill-rule="nonzero" mask="url(#mask-34)" x="19.2221538" y="14.3986813" width="2.37362637" height="2.37362637"></rect>
                <mask id="mask-36" fill="white">
                    <use xlink:href="#path-35"></use>
                </mask>
                <g id="b"></g>
                <rect id="Rectangle" fill="#5C606B" fill-rule="nonzero" mask="url(#mask-36)" x="21.5957802" y="2.52237363" width="2.37362637" height="2.37362637"></rect>
                <mask id="mask-38" fill="white">
                    <use xlink:href="#path-37"></use>
                </mask>
                <g id="b"></g>
                <rect id="Rectangle" fill="#5C606B" fill-rule="nonzero" mask="url(#mask-38)" x="21.5957802" y="21.5195604" width="2.37362637" height="2.37362637"></rect>
            </g>
        </g>
    </g>
</svg>