<?xml version="1.0" encoding="UTF-8"?>
<svg width="24px" height="22px" viewBox="0 0 24 22" version="1.1" xmlns="http://www.w3.org/2000/svg" xmlns:xlink="http://www.w3.org/1999/xlink">
    <title>AACCCD23-3E92-4810-9D15-B99DD8D84C13</title>
    <g id="Themes" stroke="none" stroke-width="1" fill="none" fill-rule="evenodd">
        <g id="Animation_plugin" transform="translate(-1292.000000, -626.000000)" fill="#5C606B" fill-rule="nonzero">
            <g id="Group-2" transform="translate(1292.000000, 626.000000)">
                <g id="Group-18" transform="translate(12.000000, 11.000000) scale(-1, 1) translate(-12.000000, -11.000000) ">
                    <path d="M8.65746916,1.09831024 L0.0324691599,20.5983102 C-0.0771855445,20.8462252 0.104336911,21.125 0.375419912,21.125 L9.00041991,21.125 C9.20752669,21.125 9.37541991,20.9571068 9.37541991,20.75 L9.37541991,1.25 C9.37541991,0.844602646 8.82145483,0.727560039 8.65746916,1.09831024 Z M8.62541991,3.02444 L8.62541991,20.375 L0.950939912,20.375 L8.62541991,3.02444 Z" id="Path"></path>
                    <path d="M14.7004199,1.25 L14.7004199,20.75 C14.7004199,20.9156854 14.8347345,21.05 15.0004199,21.05 L23.6254199,21.05 C23.8422863,21.05 23.9875043,20.8269802 23.8997805,20.6286482 L15.2747805,1.1286482 C15.143592,0.832048031 14.7004199,0.925682117 14.7004199,1.25 Z" id="Path"></path>
                    <polygon id="Path" points="8.73525487 10.92196 9.26558495 11.45229 1.38420995 19.333665 0.853879869 18.803335"></polygon>
                    <polygon id="Path" points="8.73525487 7.74870996 9.26558495 8.27904004 3.90083495 13.64379 3.37050487 13.11346"></polygon>
                    <polygon id="Path" points="8.73525487 17.26846 9.26558495 17.79879 6.04920995 21.015165 5.51887987 20.484835"></polygon>
                    <polygon id="Path" points="8.73525487 14.09521 9.26558495 14.62554 2.87595995 21.015165 2.34562987 20.484835"></polygon>
                    <polygon id="Path" points="8.73525487 4.50645996 9.26558495 5.03679004 6.47258495 7.82979004 5.94225487 7.29945996"></polygon>
                </g>
                <path d="M11.3745801,1.968125 L11.3745801,3.4427 C11.3745801,3.64980679 11.5984377,3.8177 11.8745801,3.8177 C12.1507225,3.8177 12.3745801,3.64980679 12.3745801,3.4427 L12.3745801,1.968125 C12.3745801,1.76101822 12.1507225,1.593125 11.8745801,1.593125 C11.5984377,1.593125 11.3745801,1.76101822 11.3745801,1.968125 Z M11.3745801,5.2859375 L11.3745801,6.7605125 C11.3745801,6.96761929 11.5984377,7.1355125 11.8745801,7.1355125 C12.1507225,7.1355125 12.3745801,6.96761929 12.3745801,6.7605125 L12.3745801,5.2859375 C12.3745801,5.07883072 12.1507225,4.9109375 11.8745801,4.9109375 C11.5984377,4.9109375 11.3745801,5.07883072 11.3745801,5.2859375 Z M11.3745801,8.60375 L11.3745801,10.078325 C11.3745801,10.2854318 11.5984377,10.453325 11.8745801,10.453325 C12.1507225,10.453325 12.3745801,10.2854318 12.3745801,10.078325 L12.3745801,8.60375 C12.3745801,8.39664322 12.1507225,8.22875 11.8745801,8.22875 C11.5984377,8.22875 11.3745801,8.39664322 11.3745801,8.60375 Z M11.3745801,11.9215625 L11.3745801,13.3961375 C11.3745801,13.6032443 11.5984377,13.7711375 11.8745801,13.7711375 C12.1507225,13.7711375 12.3745801,13.6032443 12.3745801,13.3961375 L12.3745801,11.9215625 C12.3745801,11.7144557 12.1507225,11.5465625 11.8745801,11.5465625 C11.5984377,11.5465625 11.3745801,11.7144557 11.3745801,11.9215625 Z M11.3745801,15.239375 L11.3745801,16.71395 C11.3745801,16.9210568 11.5984377,17.08895 11.8745801,17.08895 C12.1507225,17.08895 12.3745801,16.9210568 12.3745801,16.71395 L12.3745801,15.239375 C12.3745801,15.0322682 12.1507225,14.864375 11.8745801,14.864375 C11.5984377,14.864375 11.3745801,15.0322682 11.3745801,15.239375 Z M11.3745801,18.5571875 L11.3745801,20.0317625 C11.3745801,20.2388693 11.5984377,20.4067625 11.8745801,20.4067625 C12.1507225,20.4067625 12.3745801,20.2388693 12.3745801,20.0317625 L12.3745801,18.5571875 C12.3745801,18.3500807 12.1507225,18.1821875 11.8745801,18.1821875 C11.5984377,18.1821875 11.3745801,18.3500807 11.3745801,18.5571875 Z" id="Path" transform="translate(11.874580, 10.999944) scale(-1, 1) translate(-11.874580, -10.999944) "></path>
            </g>
        </g>
    </g>
</svg>