<?xml version="1.0" encoding="UTF-8"?>
<svg width="24px" height="24px" viewBox="0 0 24 24" version="1.1" xmlns="http://www.w3.org/2000/svg" xmlns:xlink="http://www.w3.org/1999/xlink">
    <title>E9A9A7D0-7AED-4DA1-BE17-BFDA72BFEEBB</title>
    <g id="Themes" stroke="none" stroke-width="1" fill="none" fill-rule="evenodd">
        <g id="Animation_plugin" transform="translate(-1220.000000, -409.000000)" fill="#26A5FF" fill-rule="nonzero">
            <g id="noun_none_2972511" transform="translate(1220.000000, 409.000000)">
                <path d="M4.56611096,7.4257332 C3.74592595,8.75582575 3.27272727,10.3226521 3.27272727,12 C3.27272727,16.8199396 7.18006036,20.7272727 12,20.7272727 C13.6773479,20.7272727 15.2441743,20.254074 16.5742668,19.4338891 L4.56611096,7.4257332 Z M6.77656407,5.00785094 L18.9921491,17.2234359 C20.0818875,15.7670497 20.7272727,13.9588937 20.7272727,12 C20.7272727,7.18006036 16.8199396,3.27272727 12,3.27272727 C10.0411063,3.27272727 8.23295029,3.91811246 6.77656407,5.00785094 Z M12,24 C5.372583,24 7.10542736e-14,18.6274169 7.10542736e-14,12 C7.10542736e-14,5.372583 5.372583,2.98427949e-13 12,2.98427949e-13 C18.6274169,2.98427949e-13 24,5.372583 24,12 C24,18.6274169 18.6274169,24 12,24 Z" id="Shape"></path>
            </g>
        </g>
    </g>
</svg>