<?xml version="1.0" encoding="UTF-8"?>
<svg width="25px" height="25px" viewBox="0 0 25 25" version="1.1" xmlns="http://www.w3.org/2000/svg" xmlns:xlink="http://www.w3.org/1999/xlink">
    <title>83BC9007-10F2-4610-AC57-150D0B54835D</title>
    <g id="Themes" stroke="none" stroke-width="1" fill="none" fill-rule="evenodd">
        <g id="Animation_plugin" transform="translate(-1219.000000, -769.000000)">
            <g id="Group-14" transform="translate(1219.000000, 769.000000)">
                <g id="Group-4" fill="#5C606B" fill-rule="nonzero">
                    <path d="M22.8476005,2.77111667e-13 C22.8217951,2.77111667e-13 22.7959954,0.000769919732 22.7702416,0.00240148719 C22.4675807,0.0114411294 22.1795193,0.134537406 21.9637941,0.347017858 L16.8062814,5.51155828 L16.8062814,3.59854192 C16.8037084,2.93929534 16.2699189,2.40550963 15.6106723,2.4029412 C14.9514271,2.40551161 14.4176398,2.93929674 14.4150668,3.59854192 L14.4150668,8.40205795 C14.4176986,9.06128062 14.9514496,9.59503492 15.6106723,9.59767066 L20.4141919,9.59767066 C21.0734418,9.59510022 21.607231,9.06130781 21.6097974,8.40205795 C21.6110412,8.08372079 21.4857744,7.77792795 21.2615546,7.55195102 C21.0373348,7.3259741 20.7325291,7.19832413 20.4141919,7.19708294 L18.5082561,7.19708294 L23.66577,2.04893853 C23.8922472,1.82365938 24.019582,1.51739532 24.019582,1.19795419 C24.019582,0.878513065 23.8922472,0.572248997 23.66577,0.346969847 C23.4474851,0.130892343 23.1546717,0.00671617759 22.8476005,2.77111667e-13 L22.8476005,2.77111667e-13 Z M1.24934371,0.00240148719 C0.915903162,-0.0122311059 0.591426369,0.112633281 0.353812018,0.347017858 C0.127334785,0.572297008 0,0.878561077 0,1.1980022 C0,1.51744333 0.127334785,1.8237074 0.353812018,2.04898655 L5.51132471,7.19713095 L3.60538937,7.19713095 C3.28705224,7.19837221 2.98224661,7.3260222 2.75802685,7.55199912 C2.5338071,7.77797604 2.40854034,8.08376884 2.40978409,8.40210596 C2.41235057,9.06135573 2.94613961,9.5951481 3.60538937,9.59771868 L8.40890912,9.59771868 C9.06813168,9.5950828 9.60188262,9.06132853 9.6045144,8.40210596 L9.6045144,3.59854192 C9.60194134,2.93929683 9.06815422,2.40551174 8.40890912,2.4029412 C7.74966402,2.40551174 7.21587689,2.93929683 7.21330384,3.59854192 L7.21330384,5.51151026 L2.05579115,0.346969847 C1.84006596,0.134489395 1.55200455,0.0113931176 1.24934371,0.00235347544 L1.24934371,0.00240148719 Z M3.60538937,14.4035273 C2.94524821,14.406153 2.41109315,14.9413357 2.40978409,15.6014806 C2.40853715,15.9198197 2.5338025,16.2256156 2.7580226,16.4515952 C2.98224269,16.6775747 3.28705016,16.8052263 3.60538937,16.8064676 L5.50898042,16.8064676 L0.353812018,21.9522594 C0.127334785,22.1775385 0,22.4838026 0,22.8032437 C0,23.1226849 0.127334785,23.4289489 0.353812018,23.6542281 C0.591426369,23.8886127 0.915903162,24.013477 1.24934371,23.9988445 C1.55200455,23.9898048 1.84006596,23.8667085 2.05579115,23.6542281 L7.21330384,18.4896877 L7.21330384,20.402656 C7.21587689,21.0619011 7.74966402,21.5956862 8.40890912,21.5982567 C9.06815422,21.5956862 9.60194134,21.0619011 9.6045144,20.402656 L9.6045144,15.6014806 C9.60316615,14.9413441 9.06904164,14.4061707 8.40890912,14.4035273 L3.60538937,14.4035273 Z M15.6106723,14.4035273 C14.9514496,14.406211 14.4176986,14.9399653 14.4150668,15.599188 L14.4150668,20.402656 C14.4176398,21.0619012 14.9514271,21.5956863 15.6106723,21.5982567 C16.2699175,21.5956863 16.8037048,21.0619012 16.8062778,20.402656 L16.8062778,18.4896877 L21.9637905,23.6542281 C22.1795157,23.8667085 22.4675771,23.9898048 22.770238,23.9988445 C23.1036786,24.0134771 23.4281556,23.8886128 23.66577,23.6542281 C23.8922472,23.4289489 24.019582,23.1226849 24.019582,22.8032437 C24.019582,22.4838026 23.8922472,22.1775385 23.66577,21.9522594 L18.5082561,16.804115 L20.4141919,16.804115 C20.7325291,16.8028738 21.0373348,16.6752238 21.2615546,16.4492469 C21.4857744,16.22327 21.6110412,15.9174771 21.6097974,15.59914 C21.607231,14.9398901 21.0734418,14.4060977 20.4141919,14.4035273 L15.6106723,14.4035273 Z" id="Shape-Copy-6" transform="translate(12.009791, 12.000000) scale(1, -1) translate(-12.009791, -12.000000) "></path>
                </g>
                <g id="Group-13" transform="translate(0.000000, 14.402281)" fill="#A9ACB1">
                    <path d="M22.8476005,0.00124595652 C22.8217951,0.00124595652 22.7959954,0.00201587625 22.7702416,0.00364744371 C22.4675807,0.0126870859 22.1795193,0.135783363 21.9637941,0.348263815 L16.8062814,5.51280423 L16.8062814,3.59978787 C16.8037084,2.9405413 16.2699189,2.40675559 15.6106723,2.40418716 C14.9514271,2.40675756 14.4176398,2.94054269 14.4150668,3.59978787 L14.4150668,8.4033039 C14.4176986,9.06252657 14.9514496,9.59628088 15.6106723,9.59891662 L20.4141919,9.59891662 C21.0734418,9.59634617 21.607231,9.06255377 21.6097974,8.4033039 C21.6110412,8.08496675 21.4857744,7.77917391 21.2615546,7.55319698 C21.0373348,7.32722005 20.7325291,7.19957009 20.4141919,7.19832889 L18.5082561,7.19832889 L23.66577,2.05018449 C23.8922472,1.82490534 24.019582,1.51864127 24.019582,1.19920015 C24.019582,0.879759022 23.8922472,0.573494953 23.66577,0.348215803 C23.4474851,0.1321383 23.1546717,0.00796213411 22.8476005,0.00124595652 L22.8476005,0.00124595652 Z" id="Path" transform="translate(19.217324, 4.800081) scale(1, -1) translate(-19.217324, -4.800081) "></path>
                    <path d="M1.24934371,0.00115553067 C0.915903162,-0.0134770624 0.591426369,0.111387324 0.353812018,0.345771902 C0.127334785,0.571051052 9.32587341e-14,0.87731512 9.32587341e-14,1.19675625 C9.32587341e-14,1.51619737 0.127334785,1.82246144 0.353812018,2.04774059 L5.51132471,7.19588499 L3.60538937,7.19588499 C3.28705224,7.19712625 2.98224661,7.32477624 2.75802685,7.55075316 C2.5338071,7.77673009 2.40854034,8.08252289 2.40978409,8.40086 C2.41235057,9.06010978 2.94613961,9.59390214 3.60538937,9.59647272 L8.40890912,9.59647272 C9.06813168,9.59383684 9.60188262,9.06008258 9.6045144,8.40086 L9.6045144,3.59729596 C9.60194134,2.93805088 9.06815422,2.40426578 8.40890912,2.40169525 C7.74966402,2.40426578 7.21587689,2.93805088 7.21330384,3.59729596 L7.21330384,5.51026431 L2.05579115,0.34572389 C1.84006596,0.133243438 1.55200455,0.0101471611 1.24934371,0.00110751892 L1.24934371,0.00115553067 Z" id="Path" transform="translate(4.802257, 4.798236) scale(1, -1) translate(-4.802257, -4.798236) "></path>
                </g>
            </g>
        </g>
    </g>
</svg>