<?xml version="1.0" encoding="UTF-8"?>
<svg width="24px" height="24px" viewBox="0 0 24 24" version="1.1" xmlns="http://www.w3.org/2000/svg" xmlns:xlink="http://www.w3.org/1999/xlink">
    <title>D8FB43C4-03D3-44D2-80A1-A3D4B9531B5D</title>
    <g id="Themes" stroke="none" stroke-width="1" fill="none" fill-rule="evenodd">
        <g id="Animation_plugin" transform="translate(-1292.000000, -697.000000)" fill="#5C606B" fill-rule="nonzero">
            <path d="M1314.8476,697 C1314.8218,697 1314.796,697.00077 1314.77024,697.002401 C1314.46758,697.011441 1314.17952,697.134537 1313.96379,697.347018 L1308.80628,702.511558 L1308.80628,700.598542 C1308.80371,699.939295 1308.26992,699.40551 1307.61067,699.402941 C1306.95143,699.405512 1306.41764,699.939297 1306.41507,700.598542 L1306.41507,705.402058 C1306.4177,706.061281 1306.95145,706.595035 1307.61067,706.597671 L1312.41419,706.597671 C1313.07344,706.5951 1313.60723,706.061308 1313.6098,705.402058 C1313.61104,705.083721 1313.48577,704.777928 1313.26155,704.551951 C1313.03733,704.325974 1312.73253,704.198324 1312.41419,704.197083 L1310.50826,704.197083 L1315.66577,699.048939 C1315.89225,698.823659 1316.01958,698.517395 1316.01958,698.197954 C1316.01958,697.878513 1315.89225,697.572249 1315.66577,697.34697 C1315.44749,697.130892 1315.15467,697.006716 1314.8476,697 L1314.8476,697 Z M1293.24934,697.002401 C1292.9159,696.987769 1292.59143,697.112633 1292.35381,697.347018 C1292.12733,697.572297 1292,697.878561 1292,698.198002 C1292,698.517443 1292.12733,698.823707 1292.35381,699.048987 L1297.51132,704.197131 L1295.60539,704.197131 C1295.28705,704.198372 1294.98225,704.326022 1294.75803,704.551999 C1294.53381,704.777976 1294.40854,705.083769 1294.40978,705.402106 C1294.41235,706.061356 1294.94614,706.595148 1295.60539,706.597719 L1300.40891,706.597719 C1301.06813,706.595083 1301.60188,706.061329 1301.60451,705.402106 L1301.60451,700.598542 C1301.60194,699.939297 1301.06815,699.405512 1300.40891,699.402941 C1299.74966,699.405512 1299.21588,699.939297 1299.2133,700.598542 L1299.2133,702.51151 L1294.05579,697.34697 C1293.84007,697.134489 1293.552,697.011393 1293.24934,697.002353 L1293.24934,697.002401 Z M1295.60539,711.403527 C1294.94525,711.406153 1294.41109,711.941336 1294.40978,712.601481 C1294.40854,712.91982 1294.5338,713.225616 1294.75802,713.451595 C1294.98224,713.677575 1295.28705,713.805226 1295.60539,713.806468 L1297.50898,713.806468 L1292.35381,718.952259 C1292.12733,719.177539 1292,719.483803 1292,719.803244 C1292,720.122685 1292.12733,720.428949 1292.35381,720.654228 C1292.59143,720.888613 1292.9159,721.013477 1293.24934,720.998844 C1293.552,720.989805 1293.84007,720.866709 1294.05579,720.654228 L1299.2133,715.489688 L1299.2133,717.402656 C1299.21588,718.061901 1299.74966,718.595686 1300.40891,718.598257 C1301.06815,718.595686 1301.60194,718.061901 1301.60451,717.402656 L1301.60451,712.601481 C1301.60317,711.941344 1301.06904,711.406171 1300.40891,711.403527 L1295.60539,711.403527 Z M1307.61067,711.403527 C1306.95145,711.406211 1306.4177,711.939965 1306.41507,712.599188 L1306.41507,717.402656 C1306.41764,718.061901 1306.95143,718.595686 1307.61067,718.598257 C1308.26992,718.595686 1308.8037,718.061901 1308.80628,717.402656 L1308.80628,715.489688 L1313.96379,720.654228 C1314.17952,720.866709 1314.46758,720.989805 1314.77024,720.998844 C1315.10368,721.013477 1315.42816,720.888613 1315.66577,720.654228 C1315.89225,720.428949 1316.01958,720.122685 1316.01958,719.803244 C1316.01958,719.483803 1315.89225,719.177539 1315.66577,718.952259 L1310.50826,713.804115 L1312.41419,713.804115 C1312.73253,713.802874 1313.03733,713.675224 1313.26155,713.449247 C1313.48577,713.22327 1313.61104,712.917477 1313.6098,712.59914 C1313.60723,711.93989 1313.07344,711.406098 1312.41419,711.403527 L1307.61067,711.403527 Z" id="Shape"></path>
        </g>
    </g>
</svg>