<?xml version="1.0" encoding="UTF-8"?>
<svg width="26px" height="24px" viewBox="0 0 26 24" version="1.1" xmlns="http://www.w3.org/2000/svg" xmlns:xlink="http://www.w3.org/1999/xlink">
    <title>44F11D49-3969-432E-A3B6-9BE23417091C</title>
    <g id="Themes" stroke="none" stroke-width="1" fill="none" fill-rule="evenodd">
        <g id="Animation_plugin" transform="translate(-1291.000000, -913.000000)" fill-rule="nonzero">
            <g id="Group-17" transform="translate(1291.273153, 913.000000)">
                <g id="noun_Full-Screen_3542551-Copy-3" transform="translate(0.726847, 0.000000)" fill="#5C606B">
                    <path d="M1.27757664,0.0150789698 C0.616481379,0.0127182895 0.079933738,0.549123073 0.0824368589,1.21021834 L0.0824368589,5.97445663 C0.0848265953,6.63194475 0.620088522,7.16284953 1.27757664,7.16027811 C1.93233858,7.15908763 2.46317193,6.62921856 2.46573145,5.97445663 L2.46573145,4.0678256 L10.3223984,11.9221831 L2.46573145,19.778862 L2.46573145,17.8908381 C2.4633505,17.2360761 1.93233858,16.7062904 1.27757664,16.7050166 C0.620088522,16.7026356 0.0850170715,17.2333499 0.0824368589,17.8908381 L0.0824368589,22.652743 C0.0836361191,23.3111121 0.61920757,23.8434097 1.27757664,23.8409157 L6.04180303,23.8409157 C6.69656496,23.8385169 7.2263626,23.307505 7.22763641,22.652743 C7.22525546,21.9988859 6.6956602,21.4694692 6.04180303,21.4669215 L4.14448152,21.4669215 L12.0058152,13.6032665 L19.8717917,21.4669215 L17.9581964,21.4669215 C17.3043392,21.4693025 16.7749106,21.9988859 16.772363,22.652743 C16.7735535,23.307505 17.3034344,23.8383502 17.9581964,23.8409157 L22.7201013,23.8409157 C23.3793752,23.8444693 23.9162085,23.3120288 23.9175616,22.652743 L23.9175616,17.8908381 C23.9151728,17.2324452 23.3784942,16.7011594 22.7201013,16.7050166 C22.0662442,16.7073975 21.5368156,17.2369809 21.5342679,17.8908381 L21.5342679,19.7718858 L13.68922,11.9221831 L21.5342679,4.07480179 L21.5342679,5.97445663 C21.5366489,6.6283138 22.0662442,7.15773049 22.7201013,7.16027811 C23.3784942,7.16384953 23.9149942,6.63284951 23.9175616,5.97445663 L23.9175616,1.21021834 C23.9199347,0.548218311 23.3821014,0.0112778133 22.7201013,0.0150789698 L17.9581964,0.0150789698 C17.3007083,0.0174801945 16.7697916,0.552730216 16.772363,1.21021834 C16.7735535,1.86498027 17.3034344,2.39582553 17.9581964,2.39837315 L19.8462084,2.39837315 L12.0058152,10.2387782 L4.17006486,2.39837315 L6.04180303,2.39837315 C6.69656496,2.3959922 7.2263626,1.86498027 7.22763641,1.21021834 C7.23001736,0.552730216 6.69929115,0.0176587659 6.04180303,0.0150789698 L1.27757664,0.0150789698 Z" id="Path"></path>
                </g>
                <path d="M-2.80471976,5.20587648 C-3.46581502,5.20357535 -4.00236266,5.73998013 -4,6.40107539 L-4,11.1653137 C-3.99746981,11.8228018 -3.46220788,12.3537066 -2.80471976,12.3511352 C-2.14995783,12.3499447 -1.61912447,11.8200756 -1.61656495,11.1653137 L-1.61656495,9.25868265 L6.24010204,17.1130401 L7.92351878,18.7941235 L9.60692361,17.1130401 L17.4519715,9.26565885 L17.4519715,11.1653137 C17.4543525,11.8191709 17.9839478,12.3485875 18.6378049,12.3511352 C19.2961978,12.3547066 19.8326978,11.8237066 19.8353916,11.1653137 L19.8353916,6.40107539 C19.8376383,5.73907537 19.299805,5.20213487 18.6378049,5.20587648 L13.8759,5.20587648 C13.2184119,5.20833725 12.6874952,5.74358727 12.6900666,6.40107539 C12.6912571,7.05583733 13.221138,7.58668259 13.8759,7.58923021 L15.763912,7.58923021 L7.92351878,15.4296353 L0.0877684567,7.58923021 L1.95950663,7.58923021 C2.61426856,7.58684925 3.1440662,7.05583733 3.14534001,6.40107539 C3.14772096,5.74358727 2.61699475,5.20851582 1.95950663,5.20587648 L-2.80471976,5.20587648 Z" id="Path-Copy-14" fill="#BDBFC3" opacity="0.8" transform="translate(7.917696, 12.000000) scale(-1, 1) rotate(-270.000000) translate(-7.917696, -12.000000) "></path>
            </g>
        </g>
    </g>
</svg>