<?xml version="1.0" encoding="UTF-8"?>
<svg width="26px" height="24px" viewBox="0 0 26 24" version="1.1" xmlns="http://www.w3.org/2000/svg" xmlns:xlink="http://www.w3.org/1999/xlink">
    <title>ED7241FC-DA70-4BD2-ACFA-47DF0518EE2E</title>
    <g id="Themes" stroke="none" stroke-width="1" fill="none" fill-rule="evenodd">
        <g id="Animation_plugin" transform="translate(-1291.000000, -769.000000)" fill-rule="nonzero">
            <g id="Group-12" transform="translate(1291.604515, 769.000000)">
                <path d="M23.2430853,-2.04281037e-14 C23.2172798,-2.04281037e-14 23.1914801,0.000769919732 23.1657263,0.00240148719 C22.8630655,0.0114411294 22.5750041,0.134537406 22.3592789,0.347017858 L17.2017662,5.51155828 L17.2017662,3.59854192 C17.1991931,2.93929534 16.6654037,2.40550963 16.0061571,2.4029412 C15.3469119,2.40551161 14.8131246,2.93929674 14.8105516,3.59854192 L14.8105516,8.40205795 C14.8131833,9.06128062 15.3469344,9.59503492 16.0061571,9.59767066 L20.8096767,9.59767066 C21.4689265,9.59510022 22.0027157,9.06130781 22.0052822,8.40205795 C22.006526,8.08372079 21.8812592,7.77792795 21.6570394,7.55195102 C21.4328196,7.3259741 21.1280139,7.19832413 20.8096767,7.19708294 L18.9037409,7.19708294 L24.0612548,2.04893853 C24.287732,1.82365938 24.4150668,1.51739532 24.4150668,1.19795419 C24.4150668,0.878513065 24.287732,0.572248997 24.0612548,0.346969847 C23.8429698,0.130892343 23.5501564,0.00671617759 23.2430853,-2.04281037e-14 L23.2430853,-2.04281037e-14 Z M1.64482847,0.00240148719 C1.31138793,-0.0122311059 0.986911133,0.112633281 0.749296782,0.347017858 C0.522819549,0.572297008 0.395484764,0.878561077 0.395484764,1.1980022 C0.395484764,1.51744333 0.522819549,1.8237074 0.749296782,2.04898655 L5.90680948,7.19713095 L4.00087413,7.19713095 C3.68253701,7.19837221 3.37773137,7.3260222 3.15351162,7.55199912 C2.92929187,7.77797604 2.80402511,8.08376884 2.80526886,8.40210596 C2.80783533,9.06135573 3.34162438,9.5951481 4.00087413,9.59771868 L8.80439388,9.59771868 C9.46361644,9.5950828 9.99736739,9.06132853 9.99999916,8.40210596 L9.99999916,3.59854192 C9.99742611,2.93929683 9.46363898,2.40551174 8.80439388,2.4029412 C8.14514879,2.40551174 7.61136166,2.93929683 7.60878861,3.59854192 L7.60878861,5.51151026 L2.45127591,0.346969847 C2.23555072,0.134489395 1.94748931,0.0113931176 1.64482847,0.00235347543 L1.64482847,0.00240148719 Z M4.00087413,14.4035273 C3.34073297,14.406153 2.80657791,14.9413357 2.80526886,15.6014806 C2.80402191,15.9198197 2.92928726,16.2256156 3.15350736,16.4515952 C3.37772746,16.6775747 3.68253492,16.8052263 4.00087413,16.8064676 L5.90446518,16.8064676 L0.749296782,21.9522594 C0.522819549,22.1775385 0.395484764,22.4838026 0.395484764,22.8032437 C0.395484764,23.1226849 0.522819549,23.4289489 0.749296782,23.6542281 C0.986911133,23.8886127 1.31138793,24.013477 1.64482847,23.9988445 C1.94748931,23.9898048 2.23555072,23.8667085 2.45127591,23.6542281 L7.60878861,18.4896877 L7.60878861,20.402656 C7.61136166,21.0619011 8.14514879,21.5956862 8.80439388,21.5982567 C9.46363898,21.5956862 9.99742611,21.0619011 9.99999916,20.402656 L9.99999916,15.6014806 C9.99865091,14.9413441 9.46452641,14.4061707 8.80439388,14.4035273 L4.00087413,14.4035273 Z M16.0061571,14.4035273 C15.3469344,14.406211 14.8131833,14.9399653 14.8105516,15.599188 L14.8105516,20.402656 C14.8131246,21.0619012 15.3469119,21.5956863 16.0061571,21.5982567 C16.6654023,21.5956863 17.1991895,21.0619012 17.2017626,20.402656 L17.2017626,18.4896877 L22.3592753,23.6542281 C22.5750005,23.8667085 22.8630619,23.9898048 23.1657227,23.9988445 C23.4991634,24.0134771 23.8236403,23.8886128 24.0612548,23.6542281 C24.287732,23.4289489 24.4150668,23.1226849 24.4150668,22.8032437 C24.4150668,22.4838026 24.287732,22.1775385 24.0612548,21.9522594 L18.9037409,16.804115 L20.8096767,16.804115 C21.1280139,16.8028738 21.4328196,16.6752238 21.6570394,16.4492469 C21.8812592,16.22327 22.006526,15.9174771 22.0052822,15.59914 C22.0027157,14.9398901 21.4689265,14.4060977 20.8096767,14.4035273 L16.0061571,14.4035273 Z" id="Shape-Copy-4" fill="#5C606B" transform="translate(12.405276, 12.000000) scale(-1, 1) translate(-12.405276, -12.000000) "></path>
                <g id="Group-5" transform="translate(5.000000, 12.000000) scale(-1, 1) translate(-5.000000, -12.000000) " fill="#A9ACB1">
                    <path d="M8.43253371,-1.17239551e-13 C8.40672829,-1.17239551e-13 8.38092857,0.000769919732 8.35517477,0.00240148719 C8.05251393,0.0114411294 7.76445252,0.134537406 7.54872733,0.347017858 L2.39121463,5.51155828 L2.39121463,3.59854192 C2.38864157,2.93929534 1.85485211,2.40550963 1.19560552,2.4029412 C0.536360326,2.40551161 0.00257305129,2.93929674 -9.41469125e-14,3.59854192 L-9.41469125e-14,8.40205795 C0.00263177277,9.06128062 0.536382862,9.59503492 1.19560552,9.59767066 L5.99912515,9.59767066 C6.658375,9.59510022 7.19216418,9.06130781 7.19473066,8.40205795 C7.19597441,8.08372079 7.07070762,7.77792795 6.84648782,7.55195102 C6.62226801,7.3259741 6.31746231,7.19832413 5.99912515,7.19708294 L4.09318932,7.19708294 L9.25070322,2.04893853 C9.47718045,1.82365938 9.60451524,1.51739532 9.60451524,1.19795419 C9.60451524,0.878513065 9.47718045,0.572248997 9.25070322,0.346969847 C9.03241827,0.130892343 8.73960489,0.00671617759 8.43253371,-1.17239551e-13 L8.43253371,-1.17239551e-13 Z" id="Path"></path>
                    <path d="M1.19560552,14.4035273 C0.536382862,14.406211 0.00263177277,14.9399653 1.33226763e-13,15.599188 L1.33226763e-13,20.402656 C0.00257305129,21.0619012 0.536360326,21.5956863 1.19560552,21.5982567 C1.85485071,21.5956863 2.38863798,21.0619012 2.39121103,20.402656 L2.39121103,18.4896877 L7.54872373,23.6542281 C7.76444892,23.8667085 8.05251033,23.9898048 8.35517117,23.9988445 C8.68861184,24.0134771 9.01308878,23.8886128 9.25070322,23.6542281 C9.47718045,23.4289489 9.60451524,23.1226849 9.60451524,22.8032437 C9.60451524,22.4838026 9.47718045,22.1775385 9.25070322,21.9522594 L4.09318932,16.804115 L5.99912515,16.804115 C6.31746231,16.8028738 6.62226801,16.6752238 6.84648782,16.4492469 C7.07070762,16.22327 7.19597441,15.9174771 7.19473066,15.59914 C7.19216418,14.9398901 6.658375,14.4060977 5.99912515,14.4035273 L1.19560552,14.4035273 Z" id="Path"></path>
                </g>
            </g>
        </g>
    </g>
</svg>