<?xml version="1.0" encoding="UTF-8"?>
<svg width="25px" height="25px" viewBox="0 0 25 25" version="1.1" xmlns="http://www.w3.org/2000/svg" xmlns:xlink="http://www.w3.org/1999/xlink">
    <title>7BC93528-013F-4887-8F81-D168A54B66B4</title>
    <g id="Themes" stroke="none" stroke-width="1" fill="none" fill-rule="evenodd">
        <g id="Animation_plugin" transform="translate(-1364.000000, -841.000000)" fill-rule="nonzero">
            <g id="Group-16" transform="translate(1364.082437, 841.159084)">
                <path d="M1.19513979,7.81597009e-14 C0.53404452,-0.0023606803 -0.0025031209,0.534044104 1.03206332e-12,1.19513937 L1.03206332e-12,5.95937766 C0.00238973644,6.61686578 0.537651663,7.14777056 1.19513979,7.14519914 C1.84990172,7.14400866 2.38073507,6.61413959 2.3832946,5.95937766 L2.3832946,4.05274663 L10.2399616,11.9071041 L2.3832946,19.763783 L2.3832946,17.8757591 C2.38091364,17.2209972 1.84990172,16.6912114 1.19513979,16.6899376 C0.537651663,16.6875567 0.00258021264,17.218271 1.03206332e-12,17.8757591 L1.03206332e-12,22.6376641 C0.0011992602,23.2960331 0.536770711,23.8283308 1.19513979,23.8258367 L5.95936617,23.8258367 C6.6141281,23.8234379 7.14392574,23.292426 7.14519955,22.6376641 C7.1428186,21.9838069 6.61322334,21.4543902 5.95936617,21.4518426 L4.06204466,21.4518426 L11.9233783,13.5881875 L19.7893548,21.4518426 L17.8757595,21.4518426 C17.2219023,21.4542235 16.6924738,21.9838069 16.6899261,22.6376641 C16.6911166,23.292426 17.2209976,23.8232712 17.8757595,23.8258367 L22.6376645,23.8258367 C23.2969383,23.8293903 23.8337717,23.2969498 23.8351248,22.6376641 L23.8351248,17.8757591 C23.832736,17.2173662 23.2960574,16.6860805 22.6376645,16.6899376 C21.9838073,16.6923186 21.4543787,17.2219019 21.4518311,17.8757591 L21.4518311,19.7568068 L13.6067832,11.9071041 L21.4518311,4.05972282 L21.4518311,5.95937766 C21.454212,6.61323483 21.9838073,7.14265152 22.6376645,7.14519914 C23.2960574,7.14877056 23.8325574,6.61777054 23.8351248,5.95937766 L23.8351248,1.19513937 C23.8374979,0.533139342 23.2996645,-0.00380115654 22.6376645,7.81597009e-14 L17.8757595,7.81597009e-14 C17.2182714,0.00240122466 16.6873547,0.537651247 16.6899261,1.19513937 C16.6911166,1.8499013 17.2209976,2.38074656 17.8757595,2.38329418 L19.7637715,2.38329418 L11.9233783,10.2236993 L4.087628,2.38329418 L5.95936617,2.38329418 C6.6141281,2.38091323 7.14392574,1.8499013 7.14519955,1.19513937 C7.14758051,0.537651247 6.61685429,0.0025797961 5.95936617,7.81597009e-14 L1.19513979,7.81597009e-14 Z" id="Path" fill="#5C606B" transform="translate(11.917562, 11.912918) scale(1, -1) translate(-11.917562, -11.912918) "></path>
                <path d="M1.19513979,10.2026647 C0.53404452,10.2003439 -0.0025031209,10.7367487 -1.65201186e-13,11.397844 L-1.65201186e-13,16.1620823 C0.00238973644,16.8195704 0.537651663,17.3504752 1.19513979,17.3479038 C1.84990172,17.3467133 2.38073507,16.8168442 2.3832946,16.1620823 L2.3832946,14.2554513 L10.2399616,22.1098087 L11.9175615,23.7631186 L13.6067832,22.1098087 L21.4518311,14.2624274 L21.4518311,16.1620823 C21.454212,16.8159395 21.9838073,17.3453561 22.6376645,17.3479038 C23.2960574,17.3514752 23.8325574,16.8204752 23.835339,16.1620823 L23.835339,11.397844 C23.8374979,10.735844 23.2996645,10.1989035 22.6376645,10.2026647 L17.8757595,10.2026647 C17.2182714,10.2051058 16.6873547,10.7403559 16.6899261,11.397844 C16.6911166,12.0526059 17.2209976,12.5834512 17.8757595,12.5859988 L19.7637715,12.5859988 L11.9233783,20.4264039 L4.087628,12.5859988 L5.95936617,12.5859988 C6.6141281,12.5836179 7.14392574,12.0526059 7.14519955,11.397844 C7.14758051,10.7403559 6.61685429,10.2052844 5.95936617,10.2026647 L1.19513979,10.2026647 Z" id="Path-Copy-12" fill="#BDBFC3" opacity="0.8" transform="translate(11.917669, 16.982892) scale(1, -1) translate(-11.917669, -16.982892) "></path>
            </g>
        </g>
    </g>
</svg>